<svg xmlns="http://www.w3.org/2000/svg" viewBox="0 0 512 512"><style type="text/css">  
	.st0{fill:#3fb0d6;}
	.st1{fill:#3fb0d6;}
</style><path class='st0' d="M452 346v-15c0-24.8-20.2-45-45-45s-45 20.2-45 45v15h-30v110h150V346H452zM422 346h-30v-15c0-8.3 6.7-15 15-15s15 6.7 15 15V346z"/><path class='st1' d="M467 56H45C20.2 56 0 76.2 0 101v270c0 24.8 20.2 45 45 45h257V316h31.5c7-34.2 37.3-60 73.5-60 36.2 0 66.5 25.8 73.5 60H512V101C512 76.2 491.8 56 467 56zM60 116h110v90H60V116zM226 356H60v-30h166V356zM272 296H60v-30h212V296zM407 206c-11.5 0-22-4.4-30-11.5C369 201.6 358.5 206 347 206c-24.8 0-45-20.2-45-45s20.2-45 45-45c11.5 0 22 4.4 30 11.5 8-7.1 18.5-11.5 30-11.5 24.8 0 45 20.2 45 45S431.8 206 407 206z"/></svg>