<?xml version="1.0" encoding="utf-8"?>
<!-- Generator: Adobe Illustrator 22.0.0, SVG Export Plug-In . SVG Version: 6.00 Build 0)  -->
<!DOCTYPE svg PUBLIC "-//W3C//DTD SVG 1.1//EN" "http://www.w3.org/Graphics/SVG/1.1/DTD/svg11.dtd" [
	<!ENTITY st0 "clip-path:url(#SVGID_1_);fill:url(#SVGID_2_);">
	<!ENTITY st1 "fill-rule:evenodd;clip-rule:evenodd;fill:#1D212B;">
	<!ENTITY st2 "fill-rule:evenodd;clip-rule:evenodd;fill:#136952;">
	<!ENTITY st3 "clip-path:url(#SVGID_3_);fill:url(#SVGID_4_);">
	<!ENTITY st4 "fill-rule:evenodd;clip-rule:evenodd;fill:#293025;">
	<!ENTITY st5 "fill-rule:evenodd;clip-rule:evenodd;fill:#283147;">
	<!ENTITY st6 "fill-rule:evenodd;clip-rule:evenodd;fill:#7AA142;">
	<!ENTITY st7 "fill:#87B345;">
	<!ENTITY st8 "fill:#26488C;">
	<!ENTITY st9 "clip-path:url(#SVGID_5_);fill:url(#SVGID_6_);">
	<!ENTITY st10 "fill-rule:evenodd;clip-rule:evenodd;fill:#749648;">
]>
<svg version="1.1" id="Layer_1" xmlns="http://www.w3.org/2000/svg" xmlns:xlink="http://www.w3.org/1999/xlink" x="0px" y="0px"
	 viewBox="0 0 850 600" style="enable-background:new 0 0 850 600;" xml:space="preserve">
<g>
	<defs>
		<path id="SVGID_10_" d="M461.8,315.4h-12.9v45.7h-20.8v-45.7h-22.9v45.7h-20.8c0-70.9,0-27.2,0-58.2
			c12.9-12.6,20.8-29.7,20.8-47.7v27.9l44.6,0c24.8,0,27.5-27.8,13.9-39.4c22.5-5.4,28.9-15.6,33-22.8l0,0
			c13.1,8,19.6,22.1,19.9,36.8C517.1,288.3,493.1,315.4,461.8,315.4"/>
	</defs>
	<clipPath id="SVGID_1_">
		<use xlink:href="#SVGID_10_"  style="overflow:visible;"/>
	</clipPath>
	<linearGradient id="SVGID_2_" gradientUnits="userSpaceOnUse" x1="411.7965" y1="351.0022" x2="478.4265" y2="248.2922">
		<stop  offset="0" style="stop-color:#121E38"/>
		<stop  offset="0.51" style="stop-color:#144CA3"/>
		<stop  offset="1" style="stop-color:#2995BB"/>
	</linearGradient>
	<rect x="384.3" y="221" style="&st0;" width="132.8" height="140.2"/>
</g>
<path style="&st1;" d="M333.7,315.5c40.1,0,71.4-32.2,71.4-68.2v8c0,18-7.9,35.1-20.8,47.7v12.5
	C367.4,315.5,350.6,315.5,333.7,315.5"/>
<path style="&st2;" d="M463.6,243.8c-3.6-3-8.2-5-13.9-5h1.9c30,0,39.3-10.5,45-17.9C492.5,228.3,486.1,238.5,463.6,243.8"/>
<g>
	<defs>
		<path id="SVGID_13_" d="M333.7,297.4c15-1.4,26.9-14.1,26.9-29.5v-82c0-15.4-11.9-28.1-26.9-29.5v-18.7h50.6V92.6h20.8v45.1
			l22.9,0V92.6h20.8v45.2c49.6,0,68.1,49.5,47.7,83.2c4.1-26.3-17.6-49.8-44.6-50.7h-46.8v77c0,35.9-31.3,68.2-71.4,68.2V297.4z"/>
	</defs>
	<clipPath id="SVGID_3_">
		<use xlink:href="#SVGID_13_"  style="overflow:visible;"/>
	</clipPath>
	<linearGradient id="SVGID_4_" gradientUnits="userSpaceOnUse" x1="432.4537" y1="306.7959" x2="421.8837" y2="154.0359">
		<stop  offset="0" style="stop-color:#2E3628"/>
		<stop  offset="8.752269e-02" style="stop-color:#333C29"/>
		<stop  offset="0.2071" style="stop-color:#3F4E2D"/>
		<stop  offset="0.345" style="stop-color:#546A34"/>
		<stop  offset="0.4969" style="stop-color:#72933D"/>
		<stop  offset="0.6584" style="stop-color:#97C549"/>
		<stop  offset="0.66" style="stop-color:#97C649"/>
		<stop  offset="1" style="stop-color:#9FC74E"/>
	</linearGradient>
	<rect x="333.7" y="92.6" style="&st3;" width="183.3" height="222.8"/>
</g>
<path style="&st4;" d="M453.3,177.1c-4.2-4.4-9.8-6.9-15.9-6.9h14.5c26.3,1,47.5,23.2,44.9,48.6c0-0.3,0.1-0.6,0.1-1
	C495.1,196.2,476.4,178.6,453.3,177.1"/>
<polygon style="&st5;" points="428.1,315.5 423.3,315.5 428.1,299.3 "/>
<polygon style="&st6;" points="428.1,137.8 424.6,137.8 428.1,153.9 "/>
<path style="&st7;" d="M366.7,446.8c0-0.7,0.2-1,0.8-1.2c0.9-0.2,3.1-0.3,5.3-0.3c5.3,0,13.7,3.2,13.7,15.5c0,7.2-3.1,11-5.8,12.9
	c-1.5,1.1-2.8,1.4-6.4,1.4c-2.3,0-4.9-0.2-6.9-0.8c-0.6-0.3-0.8-0.6-0.8-1.5V446.8z M355.3,481.4c0,8,0,14.9-0.4,18.5
	c-0.3,2.6-0.8,4.2-2.7,4.6c-0.8,0.2-1.8,0.3-3.2,0.3c-1.1,0-1.4,0.5-1.4,0.9c0,0.6,0.6,0.9,1.7,0.9c3.6,0,9.3-0.3,11.1-0.3
	c1.3,0,8.8,0.3,14,0.3c1.1,0,1.8-0.3,1.8-0.9c0-0.4-0.4-0.9-1.1-0.9c-1.1,0-3.1-0.1-4.4-0.3c-2.8-0.4-3.2-2.1-3.5-4.6
	c-0.4-3.7-0.5-10.5-0.5-18.5v-1.2c0-0.5,0.3-0.7,0.7-0.7l8.1,0.2c0.6,0,1.1,0.1,1.6,0.6c1.1,1.3,4.9,7.2,8.5,11.9
	c5,6.8,8.4,10.9,12.3,12.8c2.4,1.2,4.8,1.7,9.8,1.7h8.6c1.1,0,1.7-0.2,1.7-0.9c0-0.4-0.4-0.9-1.1-0.9c-0.7,0-1.2,0-2.2-0.2
	c-1.4-0.3-4.6-0.7-9.6-5.7c-5.4-5.4-11.8-13.3-19.8-23.2c8.8-7.1,12.5-12.8,12.5-19.3c0-5.8-3.8-10.2-6.4-12
	c-4.8-3.2-11.4-3.7-17.1-3.7c-2.8,0-11,0.2-14,0.2c-1.8,0-7.6-0.2-12.3-0.2c-1.3,0-2,0.2-2,0.8c0,0.6,0.6,0.9,1.5,0.9
	c1.3,0,2.9,0.1,3.6,0.3c2.9,0.8,3.7,1.7,3.9,4.7c0.1,2.8,0.1,5.2,0.1,18.4V481.4z M265.5,481.4c0,8,0,14.9-0.4,18.5
	c-0.3,2.6-0.8,4.2-2.7,4.6c-0.8,0.2-1.8,0.3-3.2,0.3c-1.1,0-1.4,0.5-1.4,0.9c0,0.6,0.6,0.9,1.7,0.9c1.8,0,4.1-0.1,6.3-0.2
	c2.2,0,4.1-0.1,5.1-0.1c2.7,0,6,0.1,10.5,0.2c4.4,0.2,9.8,0.3,16.6,0.3c3.4,0,4.2,0,4.8-2.3c0.5-1.7,1.2-7.7,1.2-9.6
	c0-0.9-0.1-2-0.8-2c-0.6,0-0.8,0.4-1,1.3c-0.6,3.6-1.6,5.4-3.9,6.5c-2.4,1-6.1,1.1-8.5,1.1c-9.2,0-12-1.3-12.2-7.3
	c-0.1-2.6,0-9.9,0-12.9v-7c0-0.5,0.1-0.9,0.5-0.9c2.3,0,12.5,0.2,14.1,0.4c3.4,0.3,4.5,1.6,5,3.4c0.2,1.1,0.2,2.3,0.3,3.2
	c0,0.4,0.2,0.7,0.8,0.7c0.8,0,0.9-1.2,0.9-1.9c0-0.6,0.2-4.1,0.4-5.8c0.5-4.4,0.7-5.8,0.7-6.4c0-0.5-0.3-0.9-0.7-0.9
	c-0.4,0-0.7,0.5-1.4,1.1c-0.9,0.8-2.2,1.1-4.3,1.3c-2,0.2-13.7,0.2-15.8,0.2c-0.5,0-0.6-0.4-0.6-0.9v-21.5c0-0.5,0.2-0.8,0.6-0.8
	c1.8,0,12.6,0.2,14.1,0.4c4.5,0.4,5.2,1.6,5.9,3.2c0.5,1,0.6,2.6,0.6,3.2c0,0.7,0.1,1.1,0.7,1.1c0.7,0,0.9-1,1-1.4
	c0.2-1,0.4-4.8,0.5-5.7c0.2-4,0.7-5,0.7-5.6c0-0.4-0.1-0.8-0.6-0.8c-0.4,0-0.9,0.3-1.4,0.4c-0.7,0.1-2.2,0.4-3.8,0.5
	c-1.7,0.1-21.7,0-24.6,0c-2.6,0-8.3-0.2-13-0.2c-1.3,0-2,0.2-2,0.8c0,0.6,0.6,0.9,1.5,0.9c1.3,0,2.9,0.1,3.6,0.3
	c2.9,0.8,3.7,1.7,3.9,4.7c0.1,2.8,0.1,5.2,0.1,18.4V481.4z M175.7,481.4c0,8,0,14.9-0.4,18.5c-0.3,2.6-0.8,4.2-2.7,4.6
	c-0.8,0.2-1.8,0.3-3.2,0.3c-1.1,0-1.4,0.5-1.4,0.9c0,0.6,0.6,0.9,1.7,0.9c1.8,0,4.1-0.1,6.3-0.2c2.2,0,4.1-0.1,5.1-0.1
	c2.7,0,6,0.1,10.5,0.2c4.4,0.2,9.8,0.3,16.6,0.3c3.4,0,4.2,0,4.8-2.3c0.5-1.7,1.2-7.7,1.2-9.6c0-0.9-0.1-2-0.8-2
	c-0.6,0-0.8,0.4-1,1.3c-0.6,3.6-1.6,5.4-3.9,6.5c-2.4,1-6.1,1.1-8.5,1.1c-9.2,0-12-1.3-12.2-7.3c-0.1-2.6,0-9.9,0-12.9v-7
	c0-0.5,0.1-0.9,0.5-0.9c2.3,0,12.5,0.2,14.1,0.4c3.4,0.3,4.5,1.6,5,3.4c0.2,1.1,0.2,2.3,0.3,3.2c0,0.4,0.2,0.7,0.8,0.7
	c0.8,0,0.9-1.2,0.9-1.9c0-0.6,0.2-4.1,0.4-5.8c0.5-4.4,0.7-5.8,0.7-6.4c0-0.5-0.3-0.9-0.7-0.9c-0.4,0-0.7,0.5-1.4,1.1
	c-0.9,0.8-2.2,1.1-4.3,1.3c-2,0.2-13.7,0.2-15.8,0.2c-0.5,0-0.6-0.4-0.6-0.9v-21.5c0-0.5,0.2-0.8,0.6-0.8c1.8,0,12.6,0.2,14.1,0.4
	c4.5,0.4,5.2,1.6,5.9,3.2c0.5,1,0.6,2.6,0.6,3.2c0,0.7,0.1,1.1,0.7,1.1c0.7,0,0.9-1,1-1.4c0.2-1,0.4-4.8,0.5-5.7
	c0.2-4,0.7-5,0.7-5.6c0-0.4-0.1-0.8-0.6-0.8c-0.4,0-0.9,0.3-1.4,0.4c-0.7,0.1-2.2,0.4-3.8,0.5c-1.7,0.1-21.7,0-24.6,0
	c-2.6,0-8.3-0.2-13-0.2c-1.3,0-2,0.2-2,0.8c0,0.6,0.6,0.9,1.5,0.9c1.3,0,2.9,0.1,3.6,0.3c2.9,0.8,3.7,1.7,3.9,4.7
	c0.1,2.8,0.1,5.2,0.1,18.4V481.4z M79.9,477c0,9.4,0,17.5-0.5,21.8c-0.4,3-0.9,5.2-3,5.6c-0.9,0.2-2.2,0.4-3.7,0.4
	c-1.2,0-1.6,0.3-1.6,0.8c0,0.7,0.7,1,2,1c4.1,0,10.6-0.3,12.9-0.3c2.7,0,9.1,0.3,15.9,0.3c1.1,0,1.9-0.3,1.9-1
	c0-0.5-0.5-0.8-1.6-0.8c-1.5,0-3.8-0.2-5.2-0.4c-3.1-0.4-3.7-2.7-4-5.5c-0.5-4.4-0.5-12.5-0.5-21.9v-41c0-1.1,0.3-1.7,0.8-1.9
	c0.9-0.3,2.5-0.4,4-0.4c2.4,0,6.6,0.6,10.2,4c5.7,5.1,6,12,6,15.4c0,10.5-8,16.9-13.7,16.9c-2.2,0-2.9,0.3-2.9,1.1
	c0,0.7,0.7,0.8,1.2,0.9c0.5,0.1,1.6,0.1,2.2,0.1c14.6,0,25.2-10.2,25.2-24.8c0-5.4-2.9-10-5.1-12.2c-1.6-1.5-6.3-5.8-19.1-5.8
	c-4.7,0-10.7,0.3-14.9,0.3c-2.9,0-9.3-0.3-14.8-0.3c-1.5,0-2.3,0.2-2.3,0.9c0,0.7,0.6,0.9,1.7,0.9c1.4,0,3.2,0.1,4,0.3
	c3.4,0.7,4.2,2.4,4.4,5.8c0.2,3.3,0.2,6.1,0.2,21.7V477z"/>
<path style="&st8;" d="M726.6,465.1c0-6.9,0-14,0.1-17c0-1,0.3-1.4,1.1-1.7c0.7-0.4,3.7-0.6,5.5-0.6c7.1,0,16.9,0.9,25.2,8.3
	c4,3.5,8.4,10.7,8.4,21.7c0,9-1.8,16.8-7.7,21.6c-5.4,4.5-11.5,5.9-19.7,5.9c-7.1,0-10.7-1.8-11.8-3.5c-0.7-0.9-0.9-4-1-6.1
	c-0.1-1.7-0.2-8.4-0.2-17.6V465.1z M714.5,481.8c0,8,0,14.9-0.4,18.5c-0.3,2.6-0.8,4.2-2.7,4.6c-0.8,0.2-1.8,0.3-3.2,0.3
	c-1.1,0-1.4,0.5-1.4,0.9c0,0.6,0.6,0.9,1.7,0.9c1.8,0,4.1-0.1,6.3-0.2c2.2,0,4.1-0.1,5.1-0.1c2.3,0,5.5,0.2,9.1,0.5
	c3.6,0.2,7.5,0.5,10.8,0.5c16.6,0,26.1-6.1,30.2-10.2c5.1-5,9.8-13.3,9.8-24.3c0-10.4-4-17.6-8.5-22.1c-9.8-9.9-25-9.9-36.3-9.9
	c-5.4,0-11.9,0.2-14.7,0.2c-2.6,0-8.3-0.2-13-0.2c-1.3,0-2,0.2-2,0.8c0,0.6,0.6,0.9,1.5,0.9c1.3,0,2.9,0.1,3.6,0.3
	c2.9,0.8,3.7,1.7,3.9,4.7c0.1,2.8,0.1,5.2,0.1,18.4V481.8z M642.1,481.8c0,8.4,0,15.4-0.4,19c-0.3,2.6-0.8,3.8-2.7,4.2
	c-0.8,0.2-1.8,0.3-3.2,0.3c-1.1,0-1.4,0.5-1.4,0.9c0,0.6,0.6,0.9,1.7,0.9c3.6,0,9.7-0.3,11.8-0.3c2.5,0,8.6,0.3,14.6,0.3
	c1,0,1.7-0.3,1.7-0.9c0-0.4-0.4-0.9-1.4-0.9c-1.3,0-3.4-0.1-4.6-0.3c-2.7-0.4-3.3-1.7-3.6-4.1c-0.4-3.7-0.4-10.7-0.4-19.1v-15.4
	c0-13.2,0-15.7,0.2-18.4c0.2-3.1,0.9-4.3,3.4-4.7c1-0.2,1.7-0.3,2.7-0.3c0.9,0,1.4-0.2,1.4-1c0-0.5-0.7-0.7-1.8-0.7
	c-3.5,0-9.3,0.2-11.6,0.2c-2.6,0-8.7-0.2-12.1-0.2c-1.4,0-2.2,0.2-2.2,0.7c0,0.8,0.5,1,1.4,1c1.1,0,2.3,0.1,3.3,0.4
	c1.9,0.6,2.9,1.6,3.1,4.6c0.1,2.8,0.1,5.2,0.1,18.4V481.8z M552.3,480.3c-0.3,0-0.5-0.2-0.3-0.6l8.7-21.7c0.1-0.3,0.2-0.8,0.5-0.8
	c0.2,0,0.3,0.5,0.4,0.8l8.5,21.8c0.1,0.3,0,0.5-0.4,0.5H552.3z M571.7,485.1c0.4,0,0.7,0.1,0.9,0.6l7,17.6c0.4,1-0.2,1.8-0.8,1.9
	c-0.9,0.1-1.1,0.4-1.1,0.9c0,0.6,1,0.6,2.7,0.7c7.6,0.2,14.1,0.2,17.3,0.2c3.4,0,3.9-0.2,3.9-0.9c0-0.6-0.4-0.9-1.2-0.9
	c-1,0-2.1-0.1-3.4-0.3c-1.6-0.3-4.2-1.4-7.7-9.3c-5.7-13.2-20.8-48.5-23-53.3c-0.9-1.9-1.3-2.8-2.7-2.8c-0.9,0-1.6,1-2.7,3.5
	l-23.6,54.4c-1.8,4.4-3.4,7.1-7.5,7.7c-0.8,0-1.8,0.1-2.7,0.1c-0.7,0-1,0.4-1,0.9c0,0.7,0.5,0.9,1.6,0.9c4.7,0,9.5-0.3,10.5-0.3
	c2.9,0,7.1,0.3,10,0.3c0.9,0,1.4-0.2,1.4-0.9c0-0.5-0.2-0.9-1.3-0.9h-1.3c-2.8,0-3.6-0.9-3.6-2.5c0-1,0.4-3.2,1.3-5.3l4.8-11.8
	c0.2-0.5,0.3-0.6,0.8-0.6H571.7z M450.7,477.4c0,9.4,0,17.5-0.5,21.8c-0.4,3-0.9,5.2-3,5.6c-0.9,0.2-2.2,0.4-3.7,0.4
	c-1.2,0-1.6,0.3-1.6,0.8c0,0.7,0.7,1,2,1c4.1,0,10.6-0.3,12.9-0.3c2.7,0,9.1,0.3,15.9,0.3c1.1,0,1.9-0.3,1.9-1
	c0-0.5-0.5-0.8-1.6-0.8c-1.5,0-3.8-0.2-5.2-0.4c-3.1-0.4-3.7-2.7-4-5.5c-0.5-4.4-0.5-12.5-0.5-21.9v-41c0-1.1,0.3-1.7,0.8-1.9
	c0.9-0.3,2.5-0.4,4-0.4c2.4,0,6.6,0.6,10.2,4c5.7,5.1,6,12,6,15.4c0,10.5-8,16.9-13.7,16.9c-2.2,0-2.9,0.3-2.9,1.1
	c0,0.7,0.7,0.8,1.2,0.9c0.5,0.1,1.6,0.1,2.2,0.1c14.6,0,25.2-10.2,25.2-24.8c0-5.4-2.9-10-5.1-12.2c-1.6-1.5-6.3-5.8-19.1-5.8
	c-4.7,0-10.7,0.3-14.9,0.3c-2.9,0-9.3-0.3-14.8-0.3c-1.5,0-2.3,0.2-2.3,0.9c0,0.7,0.6,0.9,1.7,0.9c1.4,0,3.2,0.1,4,0.3
	c3.4,0.7,4.2,2.4,4.4,5.8c0.2,3.3,0.2,6.1,0.2,21.7V477.4z"/>
<g>
	<defs>
		<path id="SVGID_16_" d="M496.6,221L496.6,221c-5.7,7.3-15,17.9-45,17.9h-46.4l0-0.1c0.3-7.4,7.1-21.6,30.9-24.4
			c11.8,0,23.1-10,23.3-22c0.1-5.2-2.2-11.2-6.1-15.2c23,1.4,41.8,19.1,43.6,40.8C496.8,218.9,496.7,220,496.6,221"/>
	</defs>
	<clipPath id="SVGID_5_">
		<use xlink:href="#SVGID_16_"  style="overflow:visible;"/>
	</clipPath>
	<linearGradient id="SVGID_6_" gradientUnits="userSpaceOnUse" x1="464.1221" y1="192.4442" x2="430.5521" y2="232.2542">
		<stop  offset="0" style="stop-color:#495D39"/>
		<stop  offset="0.1137" style="stop-color:#4E633A"/>
		<stop  offset="0.2689" style="stop-color:#5B753D"/>
		<stop  offset="0.4481" style="stop-color:#709141"/>
		<stop  offset="0.6438" style="stop-color:#8DB947"/>
		<stop  offset="0.7" style="stop-color:#97C649"/>
		<stop  offset="1" style="stop-color:#9FC74E"/>
	</linearGradient>
	<rect x="405.1" y="177.1" style="&st9;" width="91.8" height="61.7"/>
</g>
<path style="&st10;" d="M405.1,238.9L405.1,238.9c0.3-7.4,7.1-21.8,31.1-24.6v0c-8.4,0-20.6,0-31.1,0V238.9z"/>
<polygon style="&st6;" points="384.3,137.8 380.8,137.8 384.3,153.9 "/>
</svg>
