<svg xmlns="http://www.w3.org/2000/svg" viewBox="0 0 405.3 405.3"><style type="text/css">  
	.st0{fill:#26488C;}
</style><circle class="st0" cx="202.7" cy="288" r="32"/><path class="st0" d="M309.3 170.7H138.7v-64c0-35.3 28.7-64 64-64s64 28.7 64 64V128h42.7v-21.3C309.3 47.9 261.5 0 202.7 0S96 47.9 96 106.7v64c-23.5 0-42.7 19.2-42.7 42.7v149.3c0 23.5 19.1 42.7 42.7 42.7h213.3c23.5 0 42.7-19.1 42.7-42.7V213.3C352 189.8 332.9 170.7 309.3 170.7zM96 362.7V213.3h213.3l0 149.3L96 362.7 96 362.7z"/></svg>