<?xml version="1.0" encoding="utf-8"?>
<!-- Generator: Adobe Illustrator 22.0.0, SVG Export Plug-In . SVG Version: 6.00 Build 0)  -->
<svg version="1.1" id="Layer_1" xmlns="http://www.w3.org/2000/svg" xmlns:xlink="http://www.w3.org/1999/xlink" x="0px" y="0px"
	 viewBox="0 0 795.9 256.7" style="enable-background:new 0 0 795.9 256.7;" xml:space="preserve">
<style type="text/css">
	.st0{clip-path:url(#SVGID_1_);fill:url(#SVGID_2_);}
	.st1{fill-rule:evenodd;clip-rule:evenodd;fill:#1D212B;}
	.st2{fill-rule:evenodd;clip-rule:evenodd;fill:#136952;}
	.st3{clip-path:url(#SVGID_3_);fill:url(#SVGID_4_);}
	.st4{fill-rule:evenodd;clip-rule:evenodd;fill:#293025;}
	.st5{fill-rule:evenodd;clip-rule:evenodd;fill:#283147;}
	.st6{fill-rule:evenodd;clip-rule:evenodd;fill:#7AA142;}
	.st7{clip-path:url(#SVGID_5_);fill:url(#SVGID_6_);}
	.st8{fill-rule:evenodd;clip-rule:evenodd;fill:#749648;}
	.st9{fill:#87B345;}
	.st10{fill:#3FB0D6;}
</style>
<g>
	<defs>
		<path id="SVGID_10_" d="M422.1,187.3h-8.6v30.6h-13.9v-30.6h-15.4v30.6h-13.9c0-47.5,0-18.2,0-38.9c8.7-8.4,13.9-19.9,13.9-31.9
			v18.7l29.8,0c16.6,0,18.4-18.6,9.3-26.4c15-3.6,19.4-10.4,22.1-15.3l0,0c8.8,5.3,13.1,14.8,13.3,24.6
			C459.1,169.1,443,187.3,422.1,187.3"/>
	</defs>
	<clipPath id="SVGID_1_">
		<use xlink:href="#SVGID_10_"  style="overflow:visible;"/>
	</clipPath>
	<linearGradient id="SVGID_2_" gradientUnits="userSpaceOnUse" x1="388.6066" y1="211.0576" x2="433.1964" y2="142.3226">
		<stop  offset="0" style="stop-color:#121E38"/>
		<stop  offset="0.51" style="stop-color:#144CA3"/>
		<stop  offset="1" style="stop-color:#2995BB"/>
	</linearGradient>
	<rect x="370.2" y="124" class="st0" width="88.9" height="93.8"/>
</g>
<path class="st1" d="M336.3,187.3c26.9,0,47.8-21.6,47.8-45.6v5.4c0,12.1-5.3,23.5-13.9,31.9v8.3
	C358.9,187.3,347.6,187.3,336.3,187.3"/>
<path class="st2" d="M423.3,139.3c-2.4-2-5.5-3.3-9.3-3.3h1.2c20.1,0,26.3-7,30.1-12C442.6,128.9,438.3,135.7,423.3,139.3"/>
<g>
	<defs>
		<path id="SVGID_13_" d="M336.3,175.2c10.1-0.9,18-9.4,18-19.7v-54.9c0-10.3-8-18.8-18-19.7V68.3h33.9V38.2h13.9v30.2l15.4,0V38.2
			h13.9v30.2c33.2,0,45.6,33.1,31.9,55.7c2.7-17.6-11.8-33.3-29.9-34h-31.3v51.6c0,24-20.9,45.6-47.8,45.6V175.2z"/>
	</defs>
	<clipPath id="SVGID_3_">
		<use xlink:href="#SVGID_13_"  style="overflow:visible;"/>
	</clipPath>
	<linearGradient id="SVGID_4_" gradientUnits="userSpaceOnUse" x1="402.4307" y1="181.4741" x2="395.3571" y2="79.2449">
		<stop  offset="0" style="stop-color:#2E3628"/>
		<stop  offset="8.752269e-02" style="stop-color:#333C29"/>
		<stop  offset="0.2071" style="stop-color:#3F4E2D"/>
		<stop  offset="0.345" style="stop-color:#546A34"/>
		<stop  offset="0.4969" style="stop-color:#72933D"/>
		<stop  offset="0.6584" style="stop-color:#97C549"/>
		<stop  offset="0.66" style="stop-color:#97C649"/>
		<stop  offset="1" style="stop-color:#9FC74E"/>
	</linearGradient>
	<rect x="336.3" y="38.2" class="st3" width="122.7" height="149.1"/>
</g>
<path class="st4" d="M416.4,94.7c-2.8-3-6.5-4.6-10.6-4.6h9.7c17.6,0.6,31.8,15.5,30,32.5c0-0.2,0-0.4,0.1-0.6
	C444.4,107.5,431.8,95.7,416.4,94.7"/>
<polygon class="st5" points="399.5,187.3 396.3,187.3 399.5,176.5 "/>
<polygon class="st6" points="399.5,68.4 397.2,68.4 399.5,79.2 "/>
<g>
	<defs>
		<path id="SVGID_16_" d="M445.3,124L445.3,124c-3.8,4.9-10,12-30.1,12h-31.1l0-0.1c0.2-4.9,4.7-14.5,20.7-16.4
			c7.9,0,15.4-6.7,15.6-14.7c0.1-3.5-1.5-7.5-4.1-10.2c15.4,1,28,12.8,29.2,27.3C445.5,122.7,445.4,123.4,445.3,124"/>
	</defs>
	<clipPath id="SVGID_5_">
		<use xlink:href="#SVGID_16_"  style="overflow:visible;"/>
	</clipPath>
	<linearGradient id="SVGID_6_" gradientUnits="userSpaceOnUse" x1="423.6236" y1="104.9483" x2="401.1581" y2="131.5897">
		<stop  offset="0" style="stop-color:#495D39"/>
		<stop  offset="0.1137" style="stop-color:#4E633A"/>
		<stop  offset="0.2689" style="stop-color:#5B753D"/>
		<stop  offset="0.4481" style="stop-color:#709141"/>
		<stop  offset="0.6438" style="stop-color:#8DB947"/>
		<stop  offset="0.7" style="stop-color:#97C649"/>
		<stop  offset="1" style="stop-color:#9FC74E"/>
	</linearGradient>
	<rect x="384.1" y="94.7" class="st7" width="61.4" height="41.3"/>
</g>
<path class="st8" d="M384.1,136L384.1,136c0.2-5,4.8-14.6,20.8-16.4v0c-5.6,0-13.8,0-20.8,0V136z"/>
<polygon class="st6" points="370.2,68.4 367.9,68.4 370.2,79.2 "/>
<rect x="20.1" y="113.5" class="st9" width="260" height="29"/>
<rect x="514.1" y="113.5" class="st10" width="260" height="29"/>
</svg>
