<?xml version="1.0" encoding="utf-8"?>
<!-- Generator: Adobe Illustrator 22.0.0, SVG Export Plug-In . SVG Version: 6.00 Build 0)  -->
<svg version="1.1" xmlns="http://www.w3.org/2000/svg" xmlns:xlink="http://www.w3.org/1999/xlink" x="0px" y="0px"
	 viewBox="0 0 364 356.3" style="enable-background:new 0 0 364 356.3;" xml:space="preserve">
<style type="text/css">
	.st0{clip-path:url(#SVGID_4_);fill:url(#SVGID_5_);}
	.st1{fill-rule:evenodd;clip-rule:evenodd;fill:#1D212B;}
	.st2{fill-rule:evenodd;clip-rule:evenodd;fill:#136952;}
	.st3{clip-path:url(#SVGID_6_);fill:url(#SVGID_7_);}
	.st4{fill-rule:evenodd;clip-rule:evenodd;fill:#293025;}
	.st5{fill-rule:evenodd;clip-rule:evenodd;fill:#283147;}
	.st6{fill-rule:evenodd;clip-rule:evenodd;fill:#7AA142;}
	.st7{clip-path:url(#SVGID_8_);fill:url(#SVGID_9_);}
	.st8{fill-rule:evenodd;clip-rule:evenodd;fill:#749648;}
	.st9{display:none;}
	.st10{display:inline;}
	.st11{clip-path:url(#SVGID_11_);fill:url(#SVGID_12_);}
	.st12{display:inline;fill-rule:evenodd;clip-rule:evenodd;fill:#1D212B;}
	.st13{display:inline;fill-rule:evenodd;clip-rule:evenodd;fill:#136952;}
	.st14{clip-path:url(#SVGID_14_);fill:url(#SVGID_15_);}
	.st15{display:inline;fill-rule:evenodd;clip-rule:evenodd;fill:#293025;}
	.st16{display:inline;fill-rule:evenodd;clip-rule:evenodd;fill:#283147;}
	.st17{display:inline;fill-rule:evenodd;clip-rule:evenodd;fill:#7AA142;}
	.st18{clip-path:url(#SVGID_17_);fill:url(#SVGID_18_);}
	.st19{display:inline;fill-rule:evenodd;clip-rule:evenodd;fill:#749648;}
</style>
<g id="Layer_1">
	<g>
		<defs>
			<path id="SVGID_10_" d="M210.5,257.8h-12.9v45.7h-20.8v-45.7h-22.9v45.7H133c0-70.9,0-27.2,0-58.2c12.9-12.6,20.8-29.7,20.8-47.7
				v27.9l44.6,0c24.8,0,27.5-27.8,13.9-39.4c22.5-5.4,28.9-15.6,33-22.8l0,0c13.1,8,19.6,22.1,19.9,36.8
				C265.8,230.6,241.8,257.8,210.5,257.8"/>
		</defs>
		<clipPath id="SVGID_4_">
			<use xlink:href="#SVGID_10_"  style="overflow:visible;"/>
		</clipPath>
		<linearGradient id="SVGID_5_" gradientUnits="userSpaceOnUse" x1="160.4879" y1="293.3479" x2="227.1179" y2="190.6379">
			<stop  offset="0" style="stop-color:#121E38"/>
			<stop  offset="0.51" style="stop-color:#144CA3"/>
			<stop  offset="1" style="stop-color:#2995BB"/>
		</linearGradient>
		<rect x="133" y="163.3" class="st0" width="132.8" height="140.2"/>
	</g>
	<path class="st1" d="M82.4,257.8c40.1,0,71.4-32.2,71.4-68.2v8c0,18-7.9,35.1-20.8,47.7v12.5C116.1,257.8,99.3,257.8,82.4,257.8"/>
	<path class="st2" d="M212.3,186.2c-3.6-3-8.2-5-13.9-5h1.9c30,0,39.3-10.5,45-17.9C241.2,170.6,234.8,180.8,212.3,186.2"/>
	<g>
		<defs>
			<path id="SVGID_13_" d="M82.4,239.7c15-1.4,26.9-14.1,26.9-29.5v-82c0-15.4-11.9-28.1-26.9-29.5V80.1H133V35h20.8v45.1l22.9,0V35
				h20.8v45.2c49.6,0,68.1,49.5,47.7,83.2c4.1-26.3-17.6-49.8-44.6-50.7h-46.8v77c0,35.9-31.3,68.2-71.4,68.2V239.7z"/>
		</defs>
		<clipPath id="SVGID_6_">
			<use xlink:href="#SVGID_13_"  style="overflow:visible;"/>
		</clipPath>
		<linearGradient id="SVGID_7_" gradientUnits="userSpaceOnUse" x1="181.145" y1="249.1416" x2="170.575" y2="96.3816">
			<stop  offset="0" style="stop-color:#2E3628"/>
			<stop  offset="8.752269e-02" style="stop-color:#333C29"/>
			<stop  offset="0.2071" style="stop-color:#3F4E2D"/>
			<stop  offset="0.345" style="stop-color:#546A34"/>
			<stop  offset="0.4969" style="stop-color:#72933D"/>
			<stop  offset="0.6584" style="stop-color:#97C549"/>
			<stop  offset="0.66" style="stop-color:#97C649"/>
			<stop  offset="1" style="stop-color:#9FC74E"/>
		</linearGradient>
		<rect x="82.4" y="35" class="st3" width="183.3" height="222.8"/>
	</g>
	<path class="st4" d="M202,119.5c-4.2-4.4-9.8-6.9-15.9-6.9h14.5c26.3,1,47.5,23.2,44.9,48.6c0-0.3,0.1-0.6,0.1-1
		C243.8,138.5,225.1,120.9,202,119.5"/>
	<polygon class="st5" points="176.7,257.8 172,257.8 176.7,241.6 	"/>
	<polygon class="st6" points="176.7,80.1 173.3,80.1 176.7,96.3 	"/>
	<g>
		<defs>
			<path id="SVGID_16_" d="M245.3,163.3L245.3,163.3c-5.7,7.3-15,17.9-45,17.9h-46.4l0-0.1c0.3-7.4,7.1-21.6,30.9-24.4
				c11.8,0,23.1-10,23.3-22c0.1-5.2-2.2-11.2-6.1-15.2c23,1.4,41.8,19.1,43.6,40.8C245.5,161.3,245.4,162.3,245.3,163.3"/>
		</defs>
		<clipPath id="SVGID_8_">
			<use xlink:href="#SVGID_16_"  style="overflow:visible;"/>
		</clipPath>
		<linearGradient id="SVGID_9_" gradientUnits="userSpaceOnUse" x1="212.8134" y1="134.7898" x2="179.2435" y2="174.5998">
			<stop  offset="0" style="stop-color:#495D39"/>
			<stop  offset="0.1137" style="stop-color:#4E633A"/>
			<stop  offset="0.2689" style="stop-color:#5B753D"/>
			<stop  offset="0.4481" style="stop-color:#709141"/>
			<stop  offset="0.6438" style="stop-color:#8DB947"/>
			<stop  offset="0.7" style="stop-color:#97C649"/>
			<stop  offset="1" style="stop-color:#9FC74E"/>
		</linearGradient>
		<rect x="153.8" y="119.5" class="st7" width="91.8" height="61.7"/>
	</g>
	<path class="st8" d="M153.8,181.2L153.8,181.2c0.3-7.4,7.1-21.8,31.1-24.6v0c-8.4,0-20.6,0-31.1,0V181.2z"/>
	<polygon class="st6" points="133,80.1 129.5,80.1 133,96.3 	"/>
</g>
<g id="Layer_2" class="st9">
	<g class="st10">
		<defs>
			<path id="SVGID_3_" d="M210.5,257.8h-12.9v45.7h-20.8v-45.7h-22.9v45.7H133c0-70.9,0-27.2,0-58.2c12.9-12.6,20.8-29.7,20.8-47.7
				v27.9l44.6,0c24.8,0,27.5-27.8,13.9-39.4c22.5-5.4,28.9-15.6,33-22.8l0,0c13.1,8,19.6,22.1,19.9,36.8
				C265.8,230.6,241.8,257.8,210.5,257.8"/>
		</defs>
		<clipPath id="SVGID_11_">
			<use xlink:href="#SVGID_3_"  style="overflow:visible;"/>
		</clipPath>
		<linearGradient id="SVGID_12_" gradientUnits="userSpaceOnUse" x1="160.4879" y1="293.3479" x2="227.1179" y2="190.6379">
			<stop  offset="0" style="stop-color:#121E38"/>
			<stop  offset="0.51" style="stop-color:#144CA3"/>
			<stop  offset="1" style="stop-color:#2995BB"/>
		</linearGradient>
		<rect x="133" y="163.3" class="st11" width="132.8" height="140.2"/>
	</g>
	<path class="st12" d="M82.4,257.8c40.1,0,71.4-32.2,71.4-68.2v8c0,18-7.9,35.1-20.8,47.7v12.5C116.1,257.8,99.3,257.8,82.4,257.8"
		/>
	<path class="st13" d="M212.3,186.2c-3.6-3-8.2-5-13.9-5h1.9c30,0,39.3-10.5,45-17.9C241.2,170.6,234.8,180.8,212.3,186.2"/>
	<g class="st10">
		<defs>
			<path id="SVGID_2_" d="M82.4,239.7c15-1.4,26.9-14.1,26.9-29.5v-82c0-15.4-11.9-28.1-26.9-29.5V80.1H133V35h20.8v45.1l22.9,0V35
				h20.8v45.2c49.6,0,68.1,49.5,47.7,83.2c4.1-26.3-17.6-49.8-44.6-50.7h-46.8v77c0,35.9-31.3,68.2-71.4,68.2V239.7z"/>
		</defs>
		<clipPath id="SVGID_14_">
			<use xlink:href="#SVGID_2_"  style="overflow:visible;"/>
		</clipPath>
		<linearGradient id="SVGID_15_" gradientUnits="userSpaceOnUse" x1="181.145" y1="249.1416" x2="170.575" y2="96.3816">
			<stop  offset="0" style="stop-color:#2E3628"/>
			<stop  offset="8.752269e-02" style="stop-color:#333C29"/>
			<stop  offset="0.2071" style="stop-color:#3F4E2D"/>
			<stop  offset="0.345" style="stop-color:#546A34"/>
			<stop  offset="0.4969" style="stop-color:#72933D"/>
			<stop  offset="0.6584" style="stop-color:#97C549"/>
			<stop  offset="0.66" style="stop-color:#97C649"/>
			<stop  offset="1" style="stop-color:#9FC74E"/>
		</linearGradient>
		<rect x="82.4" y="35" class="st14" width="183.3" height="222.8"/>
	</g>
	<path class="st15" d="M202,119.5c-4.2-4.4-9.8-6.9-15.9-6.9h14.5c26.3,1,47.5,23.2,44.9,48.6c0-0.3,0.1-0.6,0.1-1
		C243.8,138.5,225.1,120.9,202,119.5"/>
	<polygon class="st16" points="176.7,257.8 172,257.8 176.7,241.6 	"/>
	<polygon class="st17" points="176.7,80.1 173.3,80.1 176.7,96.3 	"/>
	<g class="st10">
		<defs>
			<path id="SVGID_1_" d="M245.3,163.3L245.3,163.3c-5.7,7.3-15,17.9-45,17.9h-46.4l0-0.1c0.3-7.4,7.1-21.6,30.9-24.4
				c11.8,0,23.1-10,23.3-22c0.1-5.2-2.2-11.2-6.1-15.2c23,1.4,41.8,19.1,43.6,40.8C245.5,161.3,245.4,162.3,245.3,163.3"/>
		</defs>
		<clipPath id="SVGID_17_">
			<use xlink:href="#SVGID_1_"  style="overflow:visible;"/>
		</clipPath>
		<linearGradient id="SVGID_18_" gradientUnits="userSpaceOnUse" x1="212.8134" y1="134.7898" x2="179.2435" y2="174.5998">
			<stop  offset="0" style="stop-color:#495D39"/>
			<stop  offset="0.1137" style="stop-color:#4E633A"/>
			<stop  offset="0.2689" style="stop-color:#5B753D"/>
			<stop  offset="0.4481" style="stop-color:#709141"/>
			<stop  offset="0.6438" style="stop-color:#8DB947"/>
			<stop  offset="0.7" style="stop-color:#97C649"/>
			<stop  offset="1" style="stop-color:#9FC74E"/>
		</linearGradient>
		<rect x="153.8" y="119.5" class="st18" width="91.8" height="61.7"/>
	</g>
	<path class="st19" d="M153.8,181.2L153.8,181.2c0.3-7.4,7.1-21.8,31.1-24.6v0c-8.4,0-20.6,0-31.1,0V181.2z"/>
	<polygon class="st17" points="133,80.1 129.5,80.1 133,96.3 	"/>
</g>
</svg>
