<svg xmlns="http://www.w3.org/2000/svg" viewBox="0 0 519.36 340"><defs><style>.cls-1{fill:#ec1c24;}.cls-2{fill-rule:evenodd;}</style></defs><title>Artboard 2</title><g id="Layer_2" data-name="Layer 2"><path d="M45.44,218.49v35.57H36.52V218.49H24.33V211H57.7v7.5Z"/><path d="M88.88,254.06l-8.91-16H73.55v16H64.63V220.25C64.63,214,67.32,211,75,211h7.57c9.31,0,14.83,6,14.83,13.79A12.46,12.46,0,0,1,89,236.7l10.21,17.36ZM82,218.49H77.53c-2.83,0-4,1.63-4,3.81v8.77H82a6.27,6.27,0,0,0,6.49-6.29C88.44,220.85,85.87,218.49,82,218.49Z"/><path d="M106.6,254.06V211h8.92v43.07Z"/><path d="M146.26,254.06H140.1c-10,0-13.93-2.84-13.93-11.07V211h19.32c8.92,0,13.15,4.42,13.15,11.8a9.83,9.83,0,0,1-5.65,8.83c2.76,1.21,6.29,4,6.29,10C159.28,249.71,154.41,254.06,146.26,254.06Zm-1.48-35.57h-9.69v9.32h9.69c3.79,0,4.94-2.06,4.94-4.72S148.57,218.49,144.78,218.49Zm.58,16.88H135.09v6.78c0,3.38,1.8,4.41,5.65,4.41h4.62c4,0,5-2.42,5-5.32C150.36,237.73,149.4,235.37,145.36,235.37Z"/><path d="M193.74,254.06l-2.56-7.44H175.84l-2.5,7.44H164l14.64-39.44c1.34-2.9,2.88-3.63,5.06-3.63s3.53.54,4.69,3.63l14.63,39.44Zm-10-31.58-5.64,17.06h11Z"/><path d="M223.91,254.06c-10.21,0-14.57-3.45-14.57-12V211h8.92v31.09c0,3.45,1.41,4.48,5.65,4.48h13.6v7.5Z"/><path d="M298.47,254.06H291l-8.41-26.13-8.4,26.13h-7.45L254.58,211h9.31l7.05,27.16,7-22.44c.64-2.72,1.86-5,4.88-5,2.69,0,3.72,2.3,4.55,5l6.93,22.44L301.43,211h9.3Z"/><path d="M341.79,254.06l-2.56-7.44H323.89l-2.5,7.44h-9.31l14.63-39.44c1.35-2.9,2.89-3.63,5.07-3.63s3.53.54,4.69,3.63l14.63,39.44Zm-10-31.58-5.64,17.06h11Z"/><path d="M372,254.06c-10.21,0-14.57-3.45-14.57-12V211h8.92v31.09c0,3.45,1.41,4.48,5.65,4.48h13.6v7.5Z"/><path d="M407.25,254.06c-10.2,0-14.57-3.45-14.57-12V211h8.92v31.09c0,3.45,1.42,4.48,5.65,4.48h13.61v7.5Z"/><path d="M441.9,254.06c-10.2,0-13.92-2.84-13.92-11.37V211h30.09v7.5H436.9v10.1h14.82l-.64,7.51H436.9v6c0,3.45,1.41,4.48,5.64,4.48h15.53v7.5Z"/><path d="M484.26,218.49v35.57h-8.92V218.49H463.15V211h33.37v7.5Z"/><path d="M93.61,279.15l1.8-.16a4.07,4.07,0,0,0,.6,1.78,3.22,3.22,0,0,0,1.46,1.12,5.4,5.4,0,0,0,2.22.43,5.28,5.28,0,0,0,1.93-.32,2.8,2.8,0,0,0,1.25-.89,2.08,2.08,0,0,0,.4-1.24,1.89,1.89,0,0,0-.39-1.19,2.91,2.91,0,0,0-1.3-.85,26.32,26.32,0,0,0-2.57-.71,13.66,13.66,0,0,1-2.8-.9,3.88,3.88,0,0,1-1.54-1.35,3.26,3.26,0,0,1-.51-1.8,3.68,3.68,0,0,1,.62-2,3.85,3.85,0,0,1,1.82-1.45,6.84,6.84,0,0,1,2.65-.49,7.19,7.19,0,0,1,2.84.52,4.07,4.07,0,0,1,1.88,1.52,4.27,4.27,0,0,1,.71,2.28l-1.83.14a2.93,2.93,0,0,0-1-2.07,3.88,3.88,0,0,0-2.52-.7,4.07,4.07,0,0,0-2.53.63A1.92,1.92,0,0,0,96,273a1.64,1.64,0,0,0,.56,1.28,7.7,7.7,0,0,0,2.88,1,18.84,18.84,0,0,1,3.2.92,4.39,4.39,0,0,1,1.87,1.47,3.64,3.64,0,0,1,.6,2.06,3.92,3.92,0,0,1-.66,2.17,4.27,4.27,0,0,1-1.9,1.59,6.56,6.56,0,0,1-2.79.57,8.36,8.36,0,0,1-3.29-.57,4.69,4.69,0,0,1-2.08-1.72A5,5,0,0,1,93.61,279.15Z"/><path d="M108.66,276.75a7.83,7.83,0,0,1,1.94-5.63,6.57,6.57,0,0,1,5-2,6.91,6.91,0,0,1,3.61,1,6.18,6.18,0,0,1,2.45,2.66,8.71,8.71,0,0,1,.84,3.88,8.44,8.44,0,0,1-.89,3.94,6.08,6.08,0,0,1-2.51,2.63,7.27,7.27,0,0,1-3.51.89,6.82,6.82,0,0,1-3.65-1,6.35,6.35,0,0,1-2.44-2.69A8.2,8.2,0,0,1,108.66,276.75Zm2,0a5.83,5.83,0,0,0,1.4,4.12,4.65,4.65,0,0,0,3.53,1.5,4.56,4.56,0,0,0,3.55-1.52,6.12,6.12,0,0,0,1.4-4.31,7.39,7.39,0,0,0-.6-3.08,4.59,4.59,0,0,0-1.74-2,4.78,4.78,0,0,0-2.58-.72,4.89,4.89,0,0,0-3.5,1.39C111.12,273.05,110.64,274.61,110.64,276.78Z"/><path d="M130.61,283.79,125,269.34h2.07l3.76,10.5c.3.84.56,1.63.76,2.37.22-.79.49-1.58.78-2.37l3.91-10.5h1.95l-5.66,14.45Z"/><path d="M141.5,283.79V269.34H152V271h-8.54v4.43h8v1.7h-8v4.92h8.88v1.7Z"/><path d="M156.47,283.79V269.34h6.42a8.5,8.5,0,0,1,2.93.39,3.15,3.15,0,0,1,1.61,1.37,4.13,4.13,0,0,1,.6,2.18,3.63,3.63,0,0,1-1,2.59,5,5,0,0,1-3.08,1.35,4.59,4.59,0,0,1,1.15.72,9.79,9.79,0,0,1,1.59,1.92l2.52,3.93h-2.41l-1.91-3c-.56-.87-1-1.54-1.38-2a4.29,4.29,0,0,0-1-1,2.73,2.73,0,0,0-.88-.39,6.21,6.21,0,0,0-1.06-.07h-2.22v6.42Zm1.92-8.07h4.11a6.19,6.19,0,0,0,2.05-.27,2.22,2.22,0,0,0,1.13-.87,2.4,2.4,0,0,0,.38-1.3,2.18,2.18,0,0,0-.74-1.69,3.49,3.49,0,0,0-2.35-.66h-4.58Z"/><path d="M172.59,283.79V269.34H183V271H174.5v4.43h8v1.7h-8v4.92h8.87v1.7Z"/><path d="M187.86,283.79V269.34h1.91v14.45Z"/><path d="M201.42,278.12v-1.69h6.13v5.36a10.58,10.58,0,0,1-2.91,1.69,8.58,8.58,0,0,1-3.08.57,8.18,8.18,0,0,1-3.87-.91,6.1,6.1,0,0,1-2.63-2.64,8.34,8.34,0,0,1-.88-3.86,9,9,0,0,1,.88-3.94A5.83,5.83,0,0,1,197.6,270a7.94,7.94,0,0,1,3.81-.89,7.56,7.56,0,0,1,2.84.51,4.79,4.79,0,0,1,2,1.41,6.35,6.35,0,0,1,1.09,2.37l-1.72.47a5.47,5.47,0,0,0-.81-1.73,3.33,3.33,0,0,0-1.38-1,5,5,0,0,0-2-.38,5.74,5.74,0,0,0-2.26.4,4.09,4.09,0,0,0-1.55,1.05,5,5,0,0,0-.91,1.43,7.5,7.5,0,0,0-.55,2.91,7,7,0,0,0,.67,3.23,4.2,4.2,0,0,0,1.93,1.93,6,6,0,0,0,2.7.63,6.41,6.41,0,0,0,2.43-.47,6.17,6.17,0,0,0,1.79-1v-2.7Z"/><path d="M211.86,283.79V269.34h2l7.6,11.35V269.34h1.83v14.45h-2l-7.59-11.36v11.36Z"/><path d="M245.43,278.72l1.91.49a6.37,6.37,0,0,1-2.17,3.59,5.92,5.92,0,0,1-3.82,1.24,6.93,6.93,0,0,1-3.8-1,6,6,0,0,1-2.23-2.76,9.79,9.79,0,0,1-.76-3.87,8.57,8.57,0,0,1,.86-3.94,5.91,5.91,0,0,1,2.46-2.56,7.18,7.18,0,0,1,3.5-.87,6,6,0,0,1,3.65,1.1,5.71,5.71,0,0,1,2.06,3.11l-1.88.44a4.47,4.47,0,0,0-1.46-2.29,3.9,3.9,0,0,0-2.41-.72,4.59,4.59,0,0,0-2.78.8,4.22,4.22,0,0,0-1.58,2.14,8.7,8.7,0,0,0-.45,2.78,8.79,8.79,0,0,0,.54,3.22,4,4,0,0,0,1.67,2.05,4.66,4.66,0,0,0,2.46.68,4.16,4.16,0,0,0,2.72-.92A4.82,4.82,0,0,0,245.43,278.72Z"/><path d="M251.24,283.79V269.34h6.41a8.52,8.52,0,0,1,2.94.39,3.15,3.15,0,0,1,1.61,1.37,4.13,4.13,0,0,1,.6,2.18,3.59,3.59,0,0,1-1,2.59,5,5,0,0,1-3.07,1.35,4.78,4.78,0,0,1,1.15.72,9.79,9.79,0,0,1,1.59,1.92l2.51,3.93h-2.4l-1.92-3a22.83,22.83,0,0,0-1.38-2,4.1,4.1,0,0,0-1-1,2.6,2.6,0,0,0-.87-.39,6.35,6.35,0,0,0-1.07-.07h-2.22v6.42Zm1.91-8.07h4.12a6.19,6.19,0,0,0,2.05-.27,2.2,2.2,0,0,0,1.12-.87,2.33,2.33,0,0,0,.39-1.3,2.16,2.16,0,0,0-.75-1.69,3.47,3.47,0,0,0-2.35-.66h-4.58Z"/><path d="M271,283.79v-6.12l-5.57-8.33h2.32l2.86,4.35c.52.82,1,1.64,1.47,2.45.43-.76.95-1.61,1.57-2.55l2.8-4.25h2.23l-5.77,8.33v6.12Z"/><path d="M281.93,283.79V269.34h5.46a13.62,13.62,0,0,1,2.2.13,4.39,4.39,0,0,1,1.78.68,3.55,3.55,0,0,1,1.16,1.39,4.49,4.49,0,0,1,.44,2,4.45,4.45,0,0,1-1.17,3.12c-.79.85-2.2,1.28-4.25,1.28h-3.7v5.87Zm1.92-7.58h3.74a4,4,0,0,0,2.63-.69,2.46,2.46,0,0,0,.78-1.94,2.66,2.66,0,0,0-.46-1.56,2.17,2.17,0,0,0-1.21-.85,8.49,8.49,0,0,0-1.78-.13h-3.7Z"/><path d="M300.6,283.79V271h-4.76v-1.7h11.45V271h-4.78v12.75Z"/><path d="M309.83,276.75a7.82,7.82,0,0,1,1.93-5.63,6.57,6.57,0,0,1,5-2,6.91,6.91,0,0,1,3.61,1,6.18,6.18,0,0,1,2.45,2.66,8.71,8.71,0,0,1,.84,3.88,8.44,8.44,0,0,1-.89,3.94,6.08,6.08,0,0,1-2.51,2.63,7.27,7.27,0,0,1-3.51.89,6.82,6.82,0,0,1-3.65-1,6.35,6.35,0,0,1-2.44-2.69A8.19,8.19,0,0,1,309.83,276.75Zm2,0a5.83,5.83,0,0,0,1.4,4.12,4.63,4.63,0,0,0,3.53,1.5,4.58,4.58,0,0,0,3.55-1.52,6.12,6.12,0,0,0,1.4-4.31,7.39,7.39,0,0,0-.6-3.08,4.59,4.59,0,0,0-1.74-2,4.78,4.78,0,0,0-2.58-.72,4.89,4.89,0,0,0-3.5,1.39C312.29,273.05,311.8,274.61,311.8,276.78Z"/><path d="M337.28,283.79l-3.83-14.45h2l2.2,9.47c.23,1,.44,2,.61,3,.37-1.54.59-2.43.65-2.67l2.75-9.76h2.31l2.07,7.31a38.85,38.85,0,0,1,1.13,5.12c.18-.91.42-2,.72-3.14l2.26-9.29H352l-4,14.45h-1.84l-3.05-11c-.26-.92-.41-1.49-.45-1.7-.15.67-.3,1.23-.43,1.7l-3.06,11Z"/><path d="M353,283.79l5.55-14.45h2.06l5.92,14.45h-2.18l-1.69-4.38h-6L355,283.79Zm4.17-5.93h4.9l-1.51-4q-.69-1.82-1-3a20.1,20.1,0,0,1-.78,2.77Z"/><path d="M369.5,283.79V269.34h1.91v12.75h7.12v1.7Z"/><path d="M382.24,283.79V269.34h1.92v12.75h7.12v1.7Z"/><path d="M395.11,283.79V269.34h10.45V271H397v4.43h8v1.7h-8v4.92h8.88v1.7Z"/><path d="M413.73,283.79V271H409v-1.7h11.46V271h-4.78v12.75Z"/><path class="cls-1" d="M214.64,57.28a70.65,70.65,0,0,1,39.72-13.63c-5.27.8-10.76.44-15.81,2.3,7.7-1.68,14.65-2.86,22.66-1.44-2.45-.07-7.67-.65-8.92.15-19.31.83-38.2,9.88-50.54,24.46C205.73,62.43,210.51,60.56,214.64,57.28Z"/><path class="cls-1" d="M216.09,165.23a22.55,22.55,0,0,0,5.3,3.35A18.78,18.78,0,0,1,216.09,165.23Z"/><path class="cls-1" d="M199,76.86,197.44,80a62.36,62.36,0,0,0-8.63,24.75A62.93,62.93,0,0,1,199,76.86Z"/><path class="cls-1" d="M205.26,69.94a52.74,52.74,0,0,1,20.47-15.4A55.21,55.21,0,0,0,205.26,69.94Z"/><path class="cls-1" d="M276,170.09l.27-.26.58-.27c3.09-1,5.87-2.72,8.86-4l-2,1.26C280.36,168.18,279.82,168.81,276,170.09Z"/><polygon class="cls-1" points="214.27 163.73 214.08 163.62 212.39 162.27 212.21 162.09 214.27 163.73"/><path class="cls-1" d="M272,171.23l-.5-.26,5.3-1.4-.54.26C275.16,170.26,273.28,170.67,272,171.23Z"/><path class="cls-1" d="M231.6,167.9a14.8,14.8,0,0,0-2.54-1c-2.52-1.66-5.11-3.15-8.06-5-.46-.29-1.33-1-2.25-1.63l-1.39-1.57A53.13,53.13,0,0,0,238,169.93Z"/><path class="cls-1" d="M281.56,54.91c10.19,4.51,19.63,13.26,26.29,21.71-6.17-11.56-21.84-20.57-23-22.3-1-2.43,16.21,8.32,21.66,17.31L305,69.34l2.34,3.14c-1.52-2.22-4.41-6.73-5.55-7.76l2,1.41c-4.19-5.89-15.08-13.55-21.47-17.23,33.54,13.14,56.32,71,26.34,105.73-14.17,18.73-36.23,29.27-57.54,28.75-4.08.15-13.6-1.42-20-4.16a71.11,71.11,0,0,1-30.25-19.9C183.19,139.85,178.93,111,189.1,85.2c2.59-5,7.07-10.94,1.25,1.07-3.25,10.54-5.65,21.64-4.19,32.76a32.58,32.58,0,0,1-.75-9c-.24,8.15-.06,15.26,2.67,22.92-1.94-5.12-2.51-10.51-2.94-16,.31,13.61,6.11,28.32,15.52,39.66,3.11,4.43,6,8.44,12.51,12.66-15.38-11.89-25.36-30.72-27-50.25l0,.1c-1.18-8.63,0-16.82,2.26-24.83-.69,2.54-1.61,5.06-1.71,7.4,2.61-11.94,7.37-23.42,15.39-32.5-22.18,26.41-19.36,73.07,8.43,94.85-7.24-6.23-14.72-16.74-17.49-24.6,5.82,14.4,17.26,26.36,31.33,33.67l-3.15-1.54c8.23,5.54,18.84,8.55,28.68,9.13l2.65.3-2.65-.3a63.53,63.53,0,0,1-25.53-7.59c3.48,2.11,7.59,3.27,12.49,4.82-2.5-1.24-6.5-2-9.9-4-4.41-2.76-9.52-4.48-13.16-8.24,6.27,4.74,13.35,8.77,20.33,10.29-10.24-3.27-19.39-9.87-27-17.34,4.53,3.67,8.56,8.22,13.9,10.71,8.34,5.06,17.89,8.92,28,9.53l-1.15-.09,2.28.21a39.51,39.51,0,0,0,11.84-.1,30.55,30.55,0,0,0,10.25-2.24l1.69-.51c-1,.43-1.52.7.56.15,9.1-2,17.48-7.86,25.77-14.29,2.37-1.53,4.41-4.8,7-7.84a7.68,7.68,0,0,0,1.37-1.7l1.57-2.1,3-5.66-3,5.66-1.46,1.9c.25-.5.61-1,1.24-1.94A68.59,68.59,0,0,1,274,176.12c.84-.36,2.06-.82,2.55-1l-4.24,1.55c-4.65,1.85-9.7,1.72-14.6,2.43l4-.7c-13.87,1.32-28.57-1.38-40.59-9-11-7.21-20.68-17-25.5-29.28,2.5,6.66,6.69,12.76,11.6,18.57C193.29,144,186.58,122.84,190,103.05c.15,3.66-.3,8.57.43,10.77-.1-.15.91-6.4.62-2.76.7,13.24,3.38,22.56,6.82,26.85,0,.9-2.14-13.37-.66-8.95.81,3.76,3.61,9.87,7.32,16.15a61.42,61.42,0,0,0,3.91,5.2l1,1c5,6,11,10.71,14.61,12.65l4,2.29,1.62,1.29,2.68,1.07,11.61,3.68,6.62,1.05c0-.11-.39-.27,0-.33,5,1.05,10-.19,15-.42,2.07,0,3.84-.7,5.53-.81,5.06-2,17.08-6.4,23.35-12.76l0,0c3.76-2.41,6.1-6.32,9.17-9.58l1.62-1.43c.56-1,1-2.07,1.23-2.57,1.81-3.09,3.44-5.66,5.1-8.26.22-.51.17-1.66.53-2.77l2-6.56c1-2.44,1.2-5.09,1.49-7.74a57.48,57.48,0,0,0-2.06-26.4l.25-.53c-.64-1.24-.79-3.25-1.58-4.26l.32.24c-2.12-3.52-2.15-4.34-3.75-7.67l-1.27-2.05-.66-1a50.25,50.25,0,0,0-8-10.18c-3.64-2.84-6.51-6.85-10.8-8.86A75.41,75.41,0,0,1,281.56,54.91Z"/><path class="cls-1" d="M286.8,165c3.8-1.89,6.9-4.91,10.44-7.29C293.54,160.41,290.75,163.64,286.8,165Z"/><path class="cls-1" d="M196.66,125.89c-.4-1.6-.12-3.52-.25-5.51a55.78,55.78,0,0,0,11.92,28.91l0,0C202.25,142.92,198.72,130.87,196.66,125.89Z"/><polygon class="cls-1" points="276.29 169.83 276.83 169.57 276.87 169.56 276.29 169.83"/><polygon class="cls-1" points="190.54 105.03 190.66 103.91 189.97 112.4 190.54 105.03"/><path class="cls-1" d="M201.16,76.77c3.59-4.41,6.8-9.44,11.42-12.93,5.59-5,12.22-8.17,18.57-10.87A70.94,70.94,0,0,0,201.16,76.77Z"/><path class="cls-1" d="M196.19,105.59c.38-2.14.46-4.37,1.47-6.4-.91,2.06-.85,4.3-1.15,6.46C196.45,105.23,196.29,105.56,196.19,105.59Z"/><path class="cls-1" d="M192.22,128.54l-.5-1.66,1.52,4.19C193,130.57,192.57,129.37,192.22,128.54Z"/><path class="cls-1" d="M220.59,65.29A18.4,18.4,0,0,1,226,61.9a24.66,24.66,0,0,0-6.34,4.35Z"/><path class="cls-2" d="M356.32,135.1c-.72-2.17-2.55-3.45-4.81-4.45a2.77,2.77,0,0,0,2.3-2.79c0-4.43-4.1-6.46-8.43-7.69l-.54-4.58-3.18-.61.53,4.48a18.34,18.34,0,0,1-2.52-.48l-.53-4.49-3.2-.61.56,4.63-6.31-1.22a26.31,26.31,0,0,0,.3,2.92c1.38.4,3.34.46,4,1.54.46.72.44,2.4.57,3.45l.21,1.76-15.89-2.82c-2.23-2.49-5.71-1.24-5.71-1.24-8.93-23.84-26.82-34.52-41-41.72s-31-20.86-31-20.86a99.57,99.57,0,0,0,16.12,17l-3.63,28.4a20.26,20.26,0,0,0-6-2.18,33.18,33.18,0,0,0,.83-3.79c.67-10.75-4.2-13.91-7.82-14.8a12.1,12.1,0,0,0-4.34.36l-.63-.79s-2.46-7.23-5.64-10.5a17.65,17.65,0,0,1,6.91,10.64,9.16,9.16,0,0,1,3.88-.33c4,.08,6.47,1.77,8,4.12a31.53,31.53,0,0,0-1.65-7.26C243.68,70,229.78,72,229.78,72a17.87,17.87,0,0,0-2.47-.35C225.88,56.39,211,48.14,211,48.14a24.93,24.93,0,0,0,1.1,6.51,59.82,59.82,0,0,0-11-6.85c3.47,14.39,12.11,22,18.51,25.86-8.08,5.68-8.52,21.17-8.52,21.17-3.72-.24-9.67,2.24-9.67,2.24-7.71-2-20.37.75-24.84,3.23s-1.73,7.7-1.73,7.7,10.42,6.7,20.61,7,33,3.47,33,3.47a9.73,9.73,0,0,0,8.69,3.48c2.73-.5,11.18,1,13.91.5s4-5,4-5l1.1.23,3.33,3.66-2.69-.41-3,3.48c-3,3.47-12.17,2.23-16.14,3s-5.22-1.25-12.42-3.73-19.11-1.74-19.11-1.74a103.23,103.23,0,0,0-.09,10.72A73.32,73.32,0,0,0,208,148.53c.68,2.9,17.41,18.95,35.34,23.14,9.89,2.32,16,1.1,16,1.1s-3-5.5-.35-18.78c2.38-12,3.42-23,3.42-23,1.35-.08,4.2.72,7.56,1.83l48.31,53c-1.54,5,1.88,9.62,1.88,9.62a10.6,10.6,0,0,1-.19-1c-1.57-11.23,10.41-13.24,12.11-25.77,1.73-12.91-10.94-26.58-10.94-26.58l5-3.22c.75-.5,1.74-4.23,1.74-5.46s-5.22-5.47-5.22-5.47l13.05,2.32.25,2.14c.12,1.05.53,2.91.11,3.27s-2.2-.24-3.13-.32c-.14,1-.18,2.12-.26,3.19,2,.5,4.26.83,6.36,1.28l.5,4.21,3.17.61c-.21-1.79-.41-3.49-.43-4.15a19.38,19.38,0,0,1,2.49.57l.48,4.07,3.18.61-.5-4.21c3.26.4,6.09.61,7.63-.78C356.73,139.63,357.08,137.34,356.32,135.1ZM240.45,94.34c1.25-1.74,4.23-4,6.21-2.48a4.69,4.69,0,0,0-4.22,2.23,3.57,3.57,0,0,1,4.22.25,14.3,14.3,0,0,1-4.46,1.24,17.86,17.86,0,0,0,3.47,1.24h-.74a7.38,7.38,0,0,1-4-.25l-.51,4S239.22,96.08,240.45,94.34Zm13.16,15.89c-2-.81-7.19-1-7.19-1-.49-2.24-6.21-3.48-6.21-3.48-1-.25-5.21,1.49-5.21,1.49s-17.14,1.5-21.86-2a34.85,34.85,0,0,0-10.18-5,11.61,11.61,0,0,1,8.19,1.49,32.39,32.39,0,0,0,8.7,3.72s.25-1-1.75-2.48-3.22-6.71-3.22-6.71a6.7,6.7,0,0,1,2.73.75c1.49.75,2.73,4.22,2.73,4.22-1.25-7.2,2.61-11.45,5.47-14.89,5-6,8.44-1.25,8.44-1.25s-2.24-2.48-7.95,3-4.72,12.17-4,13.91,4.22,2.48,6.95,2.23,4-2.23,5.47-3.47.25-4,.25-4a9.13,9.13,0,0,1-6.95,3c2.22,0,4.71-3.23,4.71-3.23-4,1.25-5.47.75-5.47.75C230,94.09,234,95.83,234,95.83s-2.23-1-4.22-1.74a6.29,6.29,0,0,0-4,0c2.24-1.74,4.22-1.74,6.95-.74s4.22,1,4,2a60.47,60.47,0,0,0-.25,6.21c-1.23.25-2.73,2.24-2.73,2.24a6.3,6.3,0,0,0,3.72,1.24,5.57,5.57,0,0,0,1.34-.15l.15,0a2.87,2.87,0,0,0,1.49-.82,1,1,0,0,0,.06.15,4.55,4.55,0,0,0,1.19-1.63l.74,2.23a15.41,15.41,0,0,1,5.14,2.79s-.25.26,2.73.52a17.13,17.13,0,0,1,3.48.75Zm1.28.83.23-1.79c1.42.5,2.48,1,2.48,1l6.56.8c-4-1.67-7.8-3-7.8-3a3.83,3.83,0,0,0-.91-1.31l3.63-28.32a129.22,129.22,0,0,0,24.09,15.47C299.56,102,308,121.41,308,121.41l-34.52-5.47a14.7,14.7,0,0,0-4.16-2.6C266.12,113,257.18,112,254.89,111.06Zm6.82,10.58-3.18-3.49,10.74,2.26,5-1.24,34.2,5.21-3.16,2.73s-6.91-1.46-10.64-2.7-16.42-2-16.42-2l-8.21.5Zm63.67,37.76c5.47,13.41-.74,17.38-5.46,23.34a9.46,9.46,0,0,0-1,1.64l-46.21-50.69c6,2.06,12.73,4.57,15.71,4.85,5.21.5,17.13-.49,18.38-.49a38,38,0,0,1,4.71.74S319.92,146,325.38,159.4Zm14.75-36.95c0-.08,0-.11.1-.12,2.67.54,5.24.92,6.65,2.33a2.81,2.81,0,0,1,.84,3c-.71,1.3-3.41,1-5.94.49l-1-.18Zm9.8,14.72c-1.53,1.09-4.84.52-8.06-.18l-.7-6.19,1.05.19c2.52.45,5.56,1.12,7.06,2.57C350.28,134.52,350.82,136.07,349.93,137.17Z"/></g></svg>